<?xml version="1.0" standalone="no"?>
<!DOCTYPE svg PUBLIC "-//W3C//DTD SVG 20010904//EN"
 "http://www.w3.org/TR/2001/REC-SVG-20010904/DTD/svg10.dtd">
<svg version="1.0" xmlns="http://www.w3.org/2000/svg"
 width="963.000000pt" height="963.000000pt" viewBox="0 0 963.000000 963.000000"
 preserveAspectRatio="xMidYMid meet">
<metadata>
Created by potrace 1.11, written by Peter Selinger 2001-2013
</metadata>
<g transform="translate(0.000000,963.000000) scale(0.100000,-0.100000)"
fill="#000000" stroke="none">
<path d="M6105 9123 c-33 -19 -94 -53 -135 -75 -41 -22 -81 -45 -87 -50 -7 -6
-13 -8 -13 -4 0 3 -8 -1 -17 -10 -15 -13 -245 -142 -478 -269 -33 -18 -77 -42
-97 -53 -21 -12 -68 -38 -105 -58 -37 -20 -72 -40 -78 -44 -5 -4 -53 -30 -105
-57 -52 -28 -110 -59 -129 -71 -19 -12 -39 -18 -44 -15 -6 3 -7 2 -4 -4 3 -5
-13 -19 -36 -31 -50 -26 -80 -44 -87 -53 -3 -4 -50 -29 -105 -55 -55 -27 -138
-71 -185 -98 -85 -50 -272 -154 -343 -191 -21 -11 -49 -30 -64 -42 -14 -13
-32 -23 -40 -23 -7 0 -82 -39 -166 -87 -83 -47 -183 -103 -222 -123 -38 -21
-97 -54 -130 -73 -33 -20 -98 -56 -145 -80 -47 -25 -109 -59 -138 -76 -29 -17
-56 -31 -59 -31 -4 0 -14 -6 -22 -14 -9 -7 -50 -31 -91 -53 -126 -67 -214
-115 -240 -133 -14 -10 -72 -42 -130 -71 -58 -29 -158 -84 -223 -121 -65 -37
-120 -68 -122 -68 -3 0 -34 -18 -69 -39 -35 -22 -81 -48 -103 -59 -67 -33
-157 -84 -173 -98 -8 -7 -35 -22 -60 -33 -25 -11 -70 -34 -100 -52 -30 -17
-73 -41 -95 -54 -22 -12 -94 -53 -160 -90 -66 -37 -158 -88 -205 -113 -123
-65 -187 -109 -194 -135 -3 -12 -6 -412 -6 -889 l0 -868 28 0 c15 0 32 4 37 9
6 5 39 24 75 43 36 19 85 46 110 60 25 14 97 53 160 87 63 35 122 67 130 72
49 30 88 47 94 42 3 -4 6 -1 6 4 0 10 24 25 185 113 33 18 110 61 172 96 61
34 114 59 117 56 3 -3 6 0 6 6 0 7 33 28 73 48 39 19 96 51 125 70 28 19 56
33 61 30 5 -4 11 -2 13 2 3 7 104 64 233 131 27 14 56 32 64 40 23 21 72 39
93 33 23 -6 24 -9 62 -307 9 -70 19 -126 38 -225 11 -58 22 -116 24 -130 6
-34 83 -329 93 -360 5 -14 26 -79 46 -145 46 -149 185 -537 232 -645 3 -8 7
-17 8 -20 0 -3 11 -27 23 -54 13 -28 20 -56 17 -63 -2 -8 -1 -12 4 -9 4 3 21
-25 36 -62 38 -91 137 -320 177 -412 19 -41 54 -106 78 -145 25 -38 50 -77 55
-87 6 -9 22 -38 37 -63 15 -26 25 -52 21 -59 -3 -6 -2 -8 2 -3 9 8 84 -119
145 -248 112 -235 159 -337 165 -357 4 -13 11 -27 15 -33 4 -5 22 -48 40 -95
18 -47 41 -104 51 -127 11 -24 19 -47 19 -53 0 -6 4 -18 10 -28 5 -9 16 -37
24 -62 8 -25 29 -85 46 -135 87 -245 235 -780 242 -870 2 -22 6 -42 9 -45 3
-3 16 -57 28 -120 13 -63 25 -123 28 -133 4 -15 19 -10 121 43 63 33 122 58
129 56 8 -3 12 -2 9 3 -3 5 5 16 19 25 14 9 25 13 25 10 0 -4 8 0 18 8 20 19
272 149 272 142 0 -5 86 41 178 95 50 29 87 50 237 131 33 18 78 43 100 55 22
12 101 54 175 93 74 39 160 84 190 100 l55 30 -1 93 c-1 99 -10 250 -20 309
-14 91 -51 258 -73 328 -5 18 -10 33 -10 35 0 1 -2 9 -5 17 -3 8 -11 38 -19
65 -18 62 -103 296 -127 350 -10 22 -31 69 -46 105 -92 220 -504 1073 -525
1090 -4 3 -22 37 -41 75 -52 104 -112 219 -119 225 -11 10 -300 600 -354 725
-131 298 -292 736 -330 895 -2 8 -15 58 -28 110 -46 178 -67 280 -81 400 -4
25 -8 54 -10 65 -11 57 -15 227 -6 244 21 40 359 239 382 225 5 -3 7 -1 6 5
-2 6 42 35 97 65 55 29 155 85 223 124 68 40 125 72 128 72 3 0 18 8 32 19 15
10 59 35 97 56 39 21 81 47 94 57 13 10 27 18 31 18 3 0 85 44 181 99 96 54
228 128 294 165 66 37 127 71 135 76 44 27 96 54 103 52 7 -2 9 346 8 1337 -1
347 -4 446 -13 453 -17 10 -14 11 -83 -29z"/>
<path d="M6506 9131 c-3 -5 -6 -401 -6 -881 0 -717 2 -875 13 -891 8 -10 16
-17 18 -15 2 3 30 -10 61 -27 140 -79 275 -153 403 -222 39 -20 73 -42 76 -47
3 -5 10 -10 15 -10 15 -1 38 -11 74 -33 36 -22 101 -58 230 -128 41 -22 80
-44 86 -48 6 -5 46 -28 90 -50 176 -93 223 -119 319 -173 55 -31 106 -56 112
-56 14 0 20 484 15 1311 l-2 476 -103 53 c-119 62 -168 89 -182 100 -5 4 -64
35 -130 70 -98 51 -459 246 -745 403 -30 16 -63 36 -72 45 -10 8 -18 12 -18 7
0 -4 -6 -3 -12 2 -16 13 -224 123 -231 123 -3 0 -8 -4 -11 -9z"/>
<path d="M6214 7019 c-76 -43 -144 -79 -151 -79 -6 0 -13 -4 -15 -9 -1 -4 -34
-25 -73 -45 -38 -21 -90 -49 -115 -63 -25 -14 -99 -54 -165 -91 -231 -126
-272 -149 -295 -167 -8 -6 -31 -18 -50 -25 -19 -8 -37 -17 -40 -20 -11 -13
-100 -60 -100 -53 0 4 -4 3 -8 -3 -7 -11 -71 -48 -208 -121 -97 -51 -108 -62
-86 -83 9 -8 18 -14 19 -12 2 1 34 -14 71 -34 135 -74 247 -138 252 -143 3 -3
11 -7 19 -9 13 -3 69 -38 81 -52 3 -3 10 -6 15 -7 6 -1 60 -29 120 -63 61 -35
144 -80 185 -102 41 -22 77 -43 80 -46 3 -4 21 -15 40 -24 35 -17 107 -56 230
-126 36 -20 76 -43 90 -49 14 -7 52 -28 85 -48 33 -19 80 -44 104 -57 l44 -22
41 23 c23 12 88 48 146 78 58 31 128 69 155 85 28 15 75 40 105 55 30 16 57
30 60 33 3 3 19 12 35 21 17 9 55 30 85 46 30 17 87 47 125 68 39 21 90 49
115 63 25 14 99 54 165 90 66 36 140 76 165 89 25 14 68 37 95 51 112 58 185
104 180 111 -2 5 -19 16 -37 25 -18 9 -40 21 -48 26 -21 14 -192 110 -195 110
-2 0 -40 21 -86 46 -46 26 -109 60 -139 77 -284 155 -498 281 -493 290 3 6 1
7 -5 3 -7 -4 -38 7 -69 25 -80 44 -145 79 -238 129 -44 24 -96 54 -116 66
l-36 22 -139 -79z"/>
<path d="M4714 5951 c4 -5 31 -83 62 -173 86 -251 291 -814 325 -893 4 -11 42
-108 84 -215 78 -202 119 -303 136 -332 5 -10 9 -22 9 -28 0 -6 23 -61 51
-123 28 -61 52 -116 53 -122 3 -13 188 -384 207 -412 7 -13 17 -23 20 -23 5 0
99 181 104 200 0 3 18 41 39 85 57 120 146 330 146 343 0 7 4 12 8 12 5 0 9 6
9 14 0 7 9 38 20 67 29 75 36 93 38 99 0 3 22 68 47 145 51 152 96 317 104
380 3 21 7 42 9 45 5 8 18 97 19 128 1 19 -17 32 -114 84 -63 33 -135 72 -160
87 -25 14 -106 58 -182 96 -75 39 -135 72 -133 75 2 3 -4 6 -13 7 -28 3 -123
59 -115 68 5 4 3 5 -4 2 -6 -4 -40 8 -75 27 -34 18 -126 66 -203 106 -77 40
-167 87 -200 105 -168 90 -296 155 -291 146z"/>
<path d="M2506 4964 c-54 -29 -102 -51 -107 -48 -5 3 -9 1 -9 -5 0 -10 -41
-34 -185 -111 -44 -24 -84 -46 -90 -50 -9 -7 -83 -47 -220 -119 -27 -14 -52
-28 -55 -31 -3 -3 -27 -17 -55 -31 -66 -35 -175 -94 -255 -139 -36 -20 -85
-46 -110 -59 -73 -36 -124 -68 -127 -78 -3 -8 152 -99 392 -228 35 -19 339
-187 375 -208 19 -11 64 -36 100 -55 36 -20 68 -41 72 -46 4 -6 8 -8 8 -4 0 7
140 -69 150 -81 3 -3 30 -18 60 -33 30 -15 96 -50 145 -77 50 -28 106 -59 125
-69 l35 -18 85 44 c121 62 209 112 215 122 2 4 -6 27 -18 51 -72 135 -268 682
-271 756 0 17 -4 29 -8 26 -5 -2 -9 5 -9 16 -2 23 -3 29 -12 51 -10 24 -43
143 -87 315 -23 88 -43 161 -44 162 0 1 -46 -23 -100 -53z"/>
<path d="M3321 2598 c-113 -231 -187 -414 -262 -644 -28 -87 -54 -166 -57
-174 -10 -28 -12 -35 -47 -170 -19 -74 -35 -143 -35 -152 0 -10 -5 -18 -11
-18 -5 0 -8 -4 -5 -8 3 -5 -1 -35 -9 -68 -17 -77 -28 -160 -19 -152 4 4 18 -2
32 -12 13 -11 28 -20 32 -20 5 0 37 -16 72 -36 34 -20 95 -53 133 -74 39 -21
167 -91 285 -155 118 -65 251 -137 295 -160 127 -69 165 -91 160 -96 -2 -3 5
-6 17 -6 11 -1 28 -9 37 -17 10 -9 21 -16 25 -16 4 0 55 -26 114 -59 216 -118
282 -152 282 -144 0 4 -7 35 -15 69 -8 34 -16 72 -19 85 -22 118 -152 567
-186 644 -4 11 -11 29 -13 40 -6 24 -44 133 -57 160 -4 11 -25 65 -45 120 -47
128 -44 121 -110 280 -7 17 -23 53 -36 80 -13 28 -24 52 -24 55 -1 3 -14 32
-28 64 -15 33 -39 87 -54 120 -15 34 -38 80 -50 104 -13 23 -22 42 -19 42 4 0
-137 282 -192 380 -20 36 -44 82 -54 103 -10 20 -23 37 -28 37 -5 0 -54 -91
-109 -202z"/>
</g>
</svg>
